<mxfile host="app.diagrams.net" agent="Mozilla/5.0 (Windows NT 10.0; Win64; x64) AppleWebKit/537.36 (KHTML, like Gecko) Chrome/135.0.0.0 Safari/537.36" version="26.2.14">
  <diagram name="Page-1" id="58cdce13-f638-feb5-8d6f-7d28b1aa9fa0">
    <mxGraphModel dx="1588" dy="-32" grid="1" gridSize="10" guides="1" tooltips="1" connect="1" arrows="1" fold="1" page="1" pageScale="1" pageWidth="1100" pageHeight="850" background="none" math="0" shadow="0">
      <root>
        <mxCell id="0" />
        <mxCell id="1" parent="0" />
        <mxCell id="dFDlhB7U1VUfF-L3KWkh-35" value="" style="endArrow=open;endSize=12;dashed=1;html=1;rounded=0;fontStyle=1;exitX=1;exitY=0.5;exitDx=0;exitDy=0;" edge="1" parent="1">
          <mxGeometry width="160" relative="1" as="geometry">
            <mxPoint x="138.99999999999977" y="1014.9999999999999" as="sourcePoint" />
            <mxPoint x="189" y="970" as="targetPoint" />
          </mxGeometry>
        </mxCell>
        <mxCell id="dFDlhB7U1VUfF-L3KWkh-37" value="" style="endArrow=open;endSize=12;dashed=1;html=1;rounded=0;exitX=1;exitY=0.5;exitDx=0;exitDy=0;" edge="1" parent="1">
          <mxGeometry width="160" relative="1" as="geometry">
            <mxPoint x="138.99999999999977" y="1014.9999999999999" as="sourcePoint" />
            <mxPoint x="330" y="970" as="targetPoint" />
          </mxGeometry>
        </mxCell>
        <mxCell id="dFDlhB7U1VUfF-L3KWkh-38" value="" style="endArrow=open;endSize=12;dashed=1;html=1;rounded=0;exitX=1;exitY=0.25;exitDx=0;exitDy=0;" edge="1" parent="1" source="dFDlhB7U1VUfF-L3KWkh-34">
          <mxGeometry width="160" relative="1" as="geometry">
            <mxPoint x="114.99999999999977" y="1009.9999999999999" as="sourcePoint" />
            <mxPoint x="526" y="965" as="targetPoint" />
          </mxGeometry>
        </mxCell>
        <mxCell id="dFDlhB7U1VUfF-L3KWkh-39" value="" style="endArrow=open;endSize=12;dashed=1;html=1;rounded=0;exitX=1;exitY=0.5;exitDx=0;exitDy=0;" edge="1" parent="1">
          <mxGeometry width="160" relative="1" as="geometry">
            <mxPoint x="138.99999999999977" y="1014.9999999999999" as="sourcePoint" />
            <mxPoint x="700" y="970" as="targetPoint" />
          </mxGeometry>
        </mxCell>
        <mxCell id="dFDlhB7U1VUfF-L3KWkh-13" value="" style="ellipse;html=1;shape=startState;fillColor=#000000;strokeColor=#ff0000;" vertex="1" parent="1">
          <mxGeometry x="130" y="945" width="30" height="30" as="geometry" />
        </mxCell>
        <mxCell id="dFDlhB7U1VUfF-L3KWkh-14" value="" style="edgeStyle=orthogonalEdgeStyle;html=1;verticalAlign=bottom;endArrow=open;endSize=8;strokeColor=#ff0000;rounded=0;entryX=0;entryY=0.5;entryDx=0;entryDy=0;" edge="1" source="dFDlhB7U1VUfF-L3KWkh-13" parent="1" target="dFDlhB7U1VUfF-L3KWkh-18">
          <mxGeometry relative="1" as="geometry">
            <mxPoint x="300" y="960" as="targetPoint" />
          </mxGeometry>
        </mxCell>
        <mxCell id="dFDlhB7U1VUfF-L3KWkh-27" value="Text" style="edgeLabel;html=1;align=center;verticalAlign=middle;resizable=0;points=[];" vertex="1" connectable="0" parent="dFDlhB7U1VUfF-L3KWkh-14">
          <mxGeometry x="0.0526" y="1" relative="1" as="geometry">
            <mxPoint as="offset" />
          </mxGeometry>
        </mxCell>
        <mxCell id="dFDlhB7U1VUfF-L3KWkh-18" value="Activity" style="rounded=1;whiteSpace=wrap;html=1;arcSize=40;fontColor=#000000;fillColor=#ffffc0;strokeColor=#ff0000;" vertex="1" parent="1">
          <mxGeometry x="210" y="940" width="80" height="40" as="geometry" />
        </mxCell>
        <mxCell id="dFDlhB7U1VUfF-L3KWkh-19" value="" style="edgeStyle=orthogonalEdgeStyle;html=1;verticalAlign=bottom;endArrow=open;endSize=8;strokeColor=#ff0000;rounded=0;" edge="1" source="dFDlhB7U1VUfF-L3KWkh-18" parent="1">
          <mxGeometry relative="1" as="geometry">
            <mxPoint x="422" y="960" as="targetPoint" />
          </mxGeometry>
        </mxCell>
        <mxCell id="dFDlhB7U1VUfF-L3KWkh-24" value="Text" style="edgeLabel;html=1;align=center;verticalAlign=middle;resizable=0;points=[];" vertex="1" connectable="0" parent="dFDlhB7U1VUfF-L3KWkh-19">
          <mxGeometry x="-0.1311" y="3" relative="1" as="geometry">
            <mxPoint x="-22" as="offset" />
          </mxGeometry>
        </mxCell>
        <mxCell id="dFDlhB7U1VUfF-L3KWkh-20" value="Activity" style="rounded=1;whiteSpace=wrap;html=1;arcSize=40;fontColor=#000000;fillColor=#ffffc0;strokeColor=#ff0000;" vertex="1" parent="1">
          <mxGeometry x="390" y="940" width="90" height="40" as="geometry" />
        </mxCell>
        <mxCell id="dFDlhB7U1VUfF-L3KWkh-21" value="" style="edgeStyle=orthogonalEdgeStyle;html=1;verticalAlign=bottom;endArrow=open;endSize=8;strokeColor=#ff0000;rounded=0;" edge="1" parent="1" source="dFDlhB7U1VUfF-L3KWkh-20">
          <mxGeometry relative="1" as="geometry">
            <mxPoint x="600" y="960" as="targetPoint" />
          </mxGeometry>
        </mxCell>
        <mxCell id="dFDlhB7U1VUfF-L3KWkh-25" value="Text" style="edgeLabel;html=1;align=center;verticalAlign=middle;resizable=0;points=[];" vertex="1" connectable="0" parent="dFDlhB7U1VUfF-L3KWkh-21">
          <mxGeometry x="-0.1997" y="2" relative="1" as="geometry">
            <mxPoint as="offset" />
          </mxGeometry>
        </mxCell>
        <mxCell id="dFDlhB7U1VUfF-L3KWkh-22" value="Activity" style="rounded=1;whiteSpace=wrap;html=1;arcSize=40;fontColor=#000000;fillColor=#ffffc0;strokeColor=#ff0000;" vertex="1" parent="1">
          <mxGeometry x="569" y="940" width="91" height="40" as="geometry" />
        </mxCell>
        <mxCell id="dFDlhB7U1VUfF-L3KWkh-28" value="State" style="text;html=1;align=center;verticalAlign=middle;whiteSpace=wrap;rounded=0;" vertex="1" parent="1">
          <mxGeometry x="223" y="910" width="60" height="30" as="geometry" />
        </mxCell>
        <mxCell id="dFDlhB7U1VUfF-L3KWkh-29" value="Initial" style="text;html=1;align=center;verticalAlign=middle;whiteSpace=wrap;rounded=0;fontStyle=1" vertex="1" parent="1">
          <mxGeometry x="115" y="910" width="60" height="30" as="geometry" />
        </mxCell>
        <mxCell id="dFDlhB7U1VUfF-L3KWkh-30" value="State" style="text;html=1;align=center;verticalAlign=middle;whiteSpace=wrap;rounded=0;" vertex="1" parent="1">
          <mxGeometry x="405" y="910" width="60" height="30" as="geometry" />
        </mxCell>
        <mxCell id="dFDlhB7U1VUfF-L3KWkh-31" value="State" style="text;html=1;align=center;verticalAlign=middle;whiteSpace=wrap;rounded=0;" vertex="1" parent="1">
          <mxGeometry x="580" y="910" width="60" height="30" as="geometry" />
        </mxCell>
        <mxCell id="dFDlhB7U1VUfF-L3KWkh-32" value="Final" style="text;html=1;align=center;verticalAlign=middle;whiteSpace=wrap;rounded=0;fontStyle=1" vertex="1" parent="1">
          <mxGeometry x="709" y="915" width="60" height="30" as="geometry" />
        </mxCell>
        <mxCell id="dFDlhB7U1VUfF-L3KWkh-34" value="Transitions" style="text;html=1;align=center;verticalAlign=middle;whiteSpace=wrap;rounded=0;" vertex="1" parent="1">
          <mxGeometry x="83" y="1010" width="60" height="30" as="geometry" />
        </mxCell>
        <mxCell id="dFDlhB7U1VUfF-L3KWkh-44" value="" style="ellipse;html=1;shape=startState;fillColor=#000000;strokeColor=#ff0000;" vertex="1" parent="1">
          <mxGeometry x="79" y="1225" width="30" height="30" as="geometry" />
        </mxCell>
        <mxCell id="dFDlhB7U1VUfF-L3KWkh-47" value="" style="ellipse;html=1;shape=endState;fillColor=#000000;strokeColor=#ff0000;" vertex="1" parent="1">
          <mxGeometry x="649" y="1220" width="30" height="30" as="geometry" />
        </mxCell>
        <mxCell id="dFDlhB7U1VUfF-L3KWkh-49" value="" style="edgeStyle=orthogonalEdgeStyle;html=1;verticalAlign=bottom;endArrow=open;endSize=8;strokeColor=#ff0000;rounded=0;exitX=1;exitY=0.5;exitDx=0;exitDy=0;entryX=0;entryY=0.5;entryDx=0;entryDy=0;" edge="1" parent="1" source="dFDlhB7U1VUfF-L3KWkh-48" target="dFDlhB7U1VUfF-L3KWkh-66">
          <mxGeometry relative="1" as="geometry">
            <mxPoint x="449" y="1240" as="targetPoint" />
          </mxGeometry>
        </mxCell>
        <mxCell id="dFDlhB7U1VUfF-L3KWkh-51" value="Notify&amp;nbsp;" style="rounded=1;whiteSpace=wrap;html=1;arcSize=40;fontColor=#000000;fillColor=#ffffc0;strokeColor=#ff0000;" vertex="1" parent="1">
          <mxGeometry x="449" y="1215" width="120" height="40" as="geometry" />
        </mxCell>
        <mxCell id="dFDlhB7U1VUfF-L3KWkh-52" value="" style="edgeStyle=orthogonalEdgeStyle;html=1;verticalAlign=bottom;endArrow=open;endSize=8;strokeColor=#ff0000;rounded=0;entryX=0;entryY=0.5;entryDx=0;entryDy=0;" edge="1" parent="1" source="dFDlhB7U1VUfF-L3KWkh-51">
          <mxGeometry relative="1" as="geometry">
            <mxPoint x="648.9999999999998" y="1235.0000000000002" as="targetPoint" />
          </mxGeometry>
        </mxCell>
        <mxCell id="dFDlhB7U1VUfF-L3KWkh-63" value="" style="edgeStyle=orthogonalEdgeStyle;html=1;verticalAlign=bottom;endArrow=open;endSize=8;strokeColor=#ff0000;rounded=0;" edge="1" parent="1" source="dFDlhB7U1VUfF-L3KWkh-44" target="dFDlhB7U1VUfF-L3KWkh-48">
          <mxGeometry relative="1" as="geometry">
            <mxPoint x="249" y="1240" as="targetPoint" />
            <mxPoint x="109" y="1240" as="sourcePoint" />
          </mxGeometry>
        </mxCell>
        <mxCell id="dFDlhB7U1VUfF-L3KWkh-48" value="Idle" style="rounded=1;whiteSpace=wrap;html=1;arcSize=40;fontColor=#000000;fillColor=#ffffc0;strokeColor=#ff0000;" vertex="1" parent="1">
          <mxGeometry x="159" y="1220" width="120" height="40" as="geometry" />
        </mxCell>
        <mxCell id="dFDlhB7U1VUfF-L3KWkh-64" value="KEY" style="text;html=1;align=center;verticalAlign=middle;whiteSpace=wrap;rounded=0;fontStyle=1;fontSize=15;" vertex="1" parent="1">
          <mxGeometry x="70" y="870" width="60" height="30" as="geometry" />
        </mxCell>
        <mxCell id="dFDlhB7U1VUfF-L3KWkh-65" value="Reminder - Food Expiration" style="text;html=1;align=center;verticalAlign=middle;whiteSpace=wrap;rounded=0;fontStyle=1;fontSize=15;" vertex="1" parent="1">
          <mxGeometry x="79" y="1160" width="200" height="30" as="geometry" />
        </mxCell>
        <mxCell id="dFDlhB7U1VUfF-L3KWkh-66" value="&lt;font style=&quot;font-size: 9px;&quot;&gt;Reminder = Today?&lt;/font&gt;" style="rhombus;whiteSpace=wrap;html=1;fontColor=#000000;fillColor=#ffffc0;strokeColor=#ff0000;" vertex="1" parent="1">
          <mxGeometry x="309" y="1220" width="80" height="40" as="geometry" />
        </mxCell>
        <mxCell id="dFDlhB7U1VUfF-L3KWkh-67" value="no" style="edgeStyle=orthogonalEdgeStyle;html=1;align=left;verticalAlign=bottom;endArrow=open;endSize=8;strokeColor=#ff0000;rounded=0;entryX=0.5;entryY=0;entryDx=0;entryDy=0;exitX=0.5;exitY=0;exitDx=0;exitDy=0;" edge="1" source="dFDlhB7U1VUfF-L3KWkh-66" parent="1" target="dFDlhB7U1VUfF-L3KWkh-48">
          <mxGeometry x="-1" relative="1" as="geometry">
            <mxPoint x="469" y="1290" as="targetPoint" />
            <Array as="points">
              <mxPoint x="349" y="1200" />
              <mxPoint x="219" y="1200" />
            </Array>
          </mxGeometry>
        </mxCell>
        <mxCell id="dFDlhB7U1VUfF-L3KWkh-68" value="yes" style="edgeStyle=orthogonalEdgeStyle;html=1;align=left;verticalAlign=top;endArrow=open;endSize=8;strokeColor=#ff0000;rounded=0;exitX=1;exitY=0.5;exitDx=0;exitDy=0;entryX=0;entryY=0.626;entryDx=0;entryDy=0;entryPerimeter=0;" edge="1" source="dFDlhB7U1VUfF-L3KWkh-66" parent="1" target="dFDlhB7U1VUfF-L3KWkh-51">
          <mxGeometry x="-1" relative="1" as="geometry">
            <mxPoint x="329" y="1370" as="targetPoint" />
            <mxPoint as="offset" />
          </mxGeometry>
        </mxCell>
        <mxCell id="dFDlhB7U1VUfF-L3KWkh-69" value="" style="ellipse;html=1;shape=startState;fillColor=#000000;strokeColor=#ff0000;" vertex="1" parent="1">
          <mxGeometry x="79" y="1340" width="30" height="30" as="geometry" />
        </mxCell>
        <mxCell id="dFDlhB7U1VUfF-L3KWkh-70" value="" style="ellipse;html=1;shape=endState;fillColor=#000000;strokeColor=#ff0000;" vertex="1" parent="1">
          <mxGeometry x="700" y="1335" width="30" height="30" as="geometry" />
        </mxCell>
        <mxCell id="dFDlhB7U1VUfF-L3KWkh-71" value="" style="edgeStyle=orthogonalEdgeStyle;html=1;verticalAlign=bottom;endArrow=open;endSize=8;strokeColor=#ff0000;rounded=0;exitX=1;exitY=0.5;exitDx=0;exitDy=0;entryX=0;entryY=0.5;entryDx=0;entryDy=0;" edge="1" parent="1" source="dFDlhB7U1VUfF-L3KWkh-75" target="dFDlhB7U1VUfF-L3KWkh-77">
          <mxGeometry relative="1" as="geometry">
            <mxPoint x="449" y="1355" as="targetPoint" />
          </mxGeometry>
        </mxCell>
        <mxCell id="dFDlhB7U1VUfF-L3KWkh-72" value="Notify&amp;nbsp;" style="rounded=1;whiteSpace=wrap;html=1;arcSize=40;fontColor=#000000;fillColor=#ffffc0;strokeColor=#ff0000;" vertex="1" parent="1">
          <mxGeometry x="500" y="1330" width="120" height="40" as="geometry" />
        </mxCell>
        <mxCell id="dFDlhB7U1VUfF-L3KWkh-73" value="" style="edgeStyle=orthogonalEdgeStyle;html=1;verticalAlign=bottom;endArrow=open;endSize=8;strokeColor=#ff0000;rounded=0;entryX=0;entryY=0.5;entryDx=0;entryDy=0;" edge="1" parent="1" source="dFDlhB7U1VUfF-L3KWkh-72" target="dFDlhB7U1VUfF-L3KWkh-70">
          <mxGeometry relative="1" as="geometry">
            <mxPoint x="728.9999999999998" y="1350.0000000000002" as="targetPoint" />
          </mxGeometry>
        </mxCell>
        <mxCell id="dFDlhB7U1VUfF-L3KWkh-74" value="" style="edgeStyle=orthogonalEdgeStyle;html=1;verticalAlign=bottom;endArrow=open;endSize=8;strokeColor=#ff0000;rounded=0;" edge="1" parent="1" source="dFDlhB7U1VUfF-L3KWkh-69" target="dFDlhB7U1VUfF-L3KWkh-75">
          <mxGeometry relative="1" as="geometry">
            <mxPoint x="249" y="1355" as="targetPoint" />
            <mxPoint x="109" y="1355" as="sourcePoint" />
          </mxGeometry>
        </mxCell>
        <mxCell id="dFDlhB7U1VUfF-L3KWkh-75" value="Idle" style="rounded=1;whiteSpace=wrap;html=1;arcSize=40;fontColor=#000000;fillColor=#ffffc0;strokeColor=#ff0000;" vertex="1" parent="1">
          <mxGeometry x="159" y="1335" width="120" height="40" as="geometry" />
        </mxCell>
        <mxCell id="dFDlhB7U1VUfF-L3KWkh-76" value="Reminder - Upcoming Chore" style="text;html=1;align=left;verticalAlign=middle;whiteSpace=wrap;rounded=0;fontStyle=1;fontSize=15;" vertex="1" parent="1">
          <mxGeometry x="79" y="1275" width="219" height="30" as="geometry" />
        </mxCell>
        <mxCell id="dFDlhB7U1VUfF-L3KWkh-77" value="&lt;font style=&quot;font-size: 9px;&quot;&gt;Due Date - recurrence/frequency&lt;/font&gt;&lt;div&gt;&lt;font style=&quot;font-size: 9px;&quot;&gt;&amp;nbsp;= Today?&lt;/font&gt;&lt;/div&gt;" style="rhombus;whiteSpace=wrap;html=1;fontColor=#000000;fillColor=#ffffc0;strokeColor=#ff0000;" vertex="1" parent="1">
          <mxGeometry x="309" y="1325" width="130" height="60" as="geometry" />
        </mxCell>
        <mxCell id="dFDlhB7U1VUfF-L3KWkh-78" value="no" style="edgeStyle=orthogonalEdgeStyle;html=1;align=left;verticalAlign=bottom;endArrow=open;endSize=8;strokeColor=#ff0000;rounded=0;entryX=0.5;entryY=0;entryDx=0;entryDy=0;exitX=0.5;exitY=0;exitDx=0;exitDy=0;" edge="1" parent="1" source="dFDlhB7U1VUfF-L3KWkh-77" target="dFDlhB7U1VUfF-L3KWkh-75">
          <mxGeometry x="-1" relative="1" as="geometry">
            <mxPoint x="469" y="1405" as="targetPoint" />
            <Array as="points">
              <mxPoint x="374" y="1315" />
              <mxPoint x="219" y="1315" />
            </Array>
          </mxGeometry>
        </mxCell>
        <mxCell id="dFDlhB7U1VUfF-L3KWkh-79" value="yes" style="edgeStyle=orthogonalEdgeStyle;html=1;align=left;verticalAlign=top;endArrow=open;endSize=8;strokeColor=#ff0000;rounded=0;exitX=1;exitY=0.5;exitDx=0;exitDy=0;entryX=0;entryY=0.626;entryDx=0;entryDy=0;entryPerimeter=0;" edge="1" parent="1" source="dFDlhB7U1VUfF-L3KWkh-77" target="dFDlhB7U1VUfF-L3KWkh-72">
          <mxGeometry x="-1" relative="1" as="geometry">
            <mxPoint x="329" y="1485" as="targetPoint" />
            <mxPoint as="offset" />
          </mxGeometry>
        </mxCell>
        <mxCell id="dFDlhB7U1VUfF-L3KWkh-94" value="" style="ellipse;html=1;shape=startState;fillColor=#000000;strokeColor=#ff0000;" vertex="1" parent="1">
          <mxGeometry x="80" y="1110" width="30" height="30" as="geometry" />
        </mxCell>
        <mxCell id="dFDlhB7U1VUfF-L3KWkh-95" value="" style="edgeStyle=orthogonalEdgeStyle;html=1;verticalAlign=bottom;endArrow=open;endSize=8;strokeColor=#ff0000;rounded=0;entryX=0;entryY=0.5;entryDx=0;entryDy=0;" edge="1" parent="1" source="dFDlhB7U1VUfF-L3KWkh-94" target="dFDlhB7U1VUfF-L3KWkh-98">
          <mxGeometry relative="1" as="geometry">
            <mxPoint x="250" y="1125" as="targetPoint" />
          </mxGeometry>
        </mxCell>
        <mxCell id="dFDlhB7U1VUfF-L3KWkh-98" value="Credentials Entered" style="rounded=1;whiteSpace=wrap;html=1;arcSize=40;fontColor=#000000;fillColor=#ffffc0;strokeColor=#ff0000;" vertex="1" parent="1">
          <mxGeometry x="175" y="1105" width="120" height="40" as="geometry" />
        </mxCell>
        <mxCell id="dFDlhB7U1VUfF-L3KWkh-99" value="" style="edgeStyle=orthogonalEdgeStyle;html=1;verticalAlign=bottom;endArrow=open;endSize=8;strokeColor=#ff0000;rounded=0;entryX=0.5;entryY=1;entryDx=0;entryDy=0;" edge="1" parent="1" source="dFDlhB7U1VUfF-L3KWkh-98" target="dFDlhB7U1VUfF-L3KWkh-101">
          <mxGeometry relative="1" as="geometry">
            <mxPoint x="450" y="1125" as="targetPoint" />
          </mxGeometry>
        </mxCell>
        <mxCell id="dFDlhB7U1VUfF-L3KWkh-100" value="Incorrect&amp;nbsp;&lt;div&gt;Credentials&lt;/div&gt;" style="edgeLabel;html=1;align=center;verticalAlign=middle;resizable=0;points=[];" vertex="1" connectable="0" parent="dFDlhB7U1VUfF-L3KWkh-99">
          <mxGeometry x="-0.1311" y="3" relative="1" as="geometry">
            <mxPoint x="-20" y="-27" as="offset" />
          </mxGeometry>
        </mxCell>
        <mxCell id="dFDlhB7U1VUfF-L3KWkh-101" value="Incorrect Log on" style="rounded=1;whiteSpace=wrap;html=1;arcSize=40;fontColor=#000000;fillColor=#ffffc0;strokeColor=#ff0000;" vertex="1" parent="1">
          <mxGeometry x="300" y="1025" width="120" height="40" as="geometry" />
        </mxCell>
        <mxCell id="dFDlhB7U1VUfF-L3KWkh-102" value="" style="edgeStyle=orthogonalEdgeStyle;html=1;verticalAlign=bottom;endArrow=open;endSize=8;strokeColor=#ff0000;rounded=0;exitX=0;exitY=0.5;exitDx=0;exitDy=0;" edge="1" parent="1" source="dFDlhB7U1VUfF-L3KWkh-101" target="dFDlhB7U1VUfF-L3KWkh-98">
          <mxGeometry relative="1" as="geometry">
            <mxPoint x="650" y="1125" as="targetPoint" />
          </mxGeometry>
        </mxCell>
        <mxCell id="dFDlhB7U1VUfF-L3KWkh-104" value="Successful Log on" style="rounded=1;whiteSpace=wrap;html=1;arcSize=40;fontColor=#000000;fillColor=#ffffc0;strokeColor=#ff0000;" vertex="1" parent="1">
          <mxGeometry x="430" y="1100" width="120" height="40" as="geometry" />
        </mxCell>
        <mxCell id="dFDlhB7U1VUfF-L3KWkh-105" value="" style="edgeStyle=orthogonalEdgeStyle;html=1;verticalAlign=bottom;endArrow=open;endSize=8;strokeColor=#ff0000;rounded=0;entryX=-0.024;entryY=0.644;entryDx=0;entryDy=0;entryPerimeter=0;" edge="1" parent="1" target="dFDlhB7U1VUfF-L3KWkh-104">
          <mxGeometry relative="1" as="geometry">
            <mxPoint x="690" y="1120" as="targetPoint" />
            <mxPoint x="300" y="1125" as="sourcePoint" />
          </mxGeometry>
        </mxCell>
        <mxCell id="dFDlhB7U1VUfF-L3KWkh-112" value="Correct&amp;nbsp;&lt;div&gt;Credentials&lt;/div&gt;" style="edgeLabel;html=1;align=center;verticalAlign=middle;resizable=0;points=[];" vertex="1" connectable="0" parent="dFDlhB7U1VUfF-L3KWkh-105">
          <mxGeometry x="0.4805" y="-1" relative="1" as="geometry">
            <mxPoint x="-14" y="18" as="offset" />
          </mxGeometry>
        </mxCell>
        <mxCell id="dFDlhB7U1VUfF-L3KWkh-107" value="User Log On" style="text;html=1;align=left;verticalAlign=middle;whiteSpace=wrap;rounded=0;fontStyle=1;fontSize=15;" vertex="1" parent="1">
          <mxGeometry x="79" y="1065" width="200" height="30" as="geometry" />
        </mxCell>
        <mxCell id="dFDlhB7U1VUfF-L3KWkh-111" value="" style="edgeStyle=orthogonalEdgeStyle;html=1;verticalAlign=bottom;endArrow=open;endSize=8;strokeColor=#ff0000;rounded=0;" edge="1" parent="1" source="dFDlhB7U1VUfF-L3KWkh-104" target="dFDlhB7U1VUfF-L3KWkh-97">
          <mxGeometry relative="1" as="geometry">
            <mxPoint x="690" y="1120" as="targetPoint" />
            <mxPoint x="550" y="1120" as="sourcePoint" />
          </mxGeometry>
        </mxCell>
        <mxCell id="dFDlhB7U1VUfF-L3KWkh-97" value="" style="ellipse;html=1;shape=endState;fillColor=#000000;strokeColor=#ff0000;" vertex="1" parent="1">
          <mxGeometry x="630" y="1105" width="30" height="30" as="geometry" />
        </mxCell>
        <mxCell id="dFDlhB7U1VUfF-L3KWkh-113" value="View Item" style="text;html=1;align=left;verticalAlign=middle;whiteSpace=wrap;rounded=0;fontStyle=1;fontSize=15;" vertex="1" parent="1">
          <mxGeometry x="79" y="1405" width="90" height="30" as="geometry" />
        </mxCell>
        <mxCell id="dFDlhB7U1VUfF-L3KWkh-118" value="" style="ellipse;html=1;shape=startState;fillColor=#000000;strokeColor=#ff0000;" vertex="1" parent="1">
          <mxGeometry x="78" y="1455" width="30" height="30" as="geometry" />
        </mxCell>
        <mxCell id="dFDlhB7U1VUfF-L3KWkh-119" value="Display Food Item" style="rounded=1;whiteSpace=wrap;html=1;arcSize=40;fontColor=#000000;fillColor=#ffffc0;strokeColor=#ff0000;" vertex="1" parent="1">
          <mxGeometry x="584" y="1410" width="120" height="40" as="geometry" />
        </mxCell>
        <mxCell id="dFDlhB7U1VUfF-L3KWkh-120" value="" style="edgeStyle=orthogonalEdgeStyle;html=1;verticalAlign=bottom;endArrow=open;endSize=8;strokeColor=#ff0000;rounded=0;entryX=0;entryY=0.5;entryDx=0;entryDy=0;exitX=1;exitY=0.5;exitDx=0;exitDy=0;" edge="1" parent="1" source="dFDlhB7U1VUfF-L3KWkh-119" target="dFDlhB7U1VUfF-L3KWkh-135">
          <mxGeometry relative="1" as="geometry">
            <mxPoint x="759" y="1450" as="targetPoint" />
            <mxPoint x="704" y="1435" as="sourcePoint" />
            <Array as="points" />
          </mxGeometry>
        </mxCell>
        <mxCell id="dFDlhB7U1VUfF-L3KWkh-121" value="" style="edgeStyle=orthogonalEdgeStyle;html=1;verticalAlign=bottom;endArrow=open;endSize=8;strokeColor=#ff0000;rounded=0;" edge="1" parent="1" source="dFDlhB7U1VUfF-L3KWkh-118" target="dFDlhB7U1VUfF-L3KWkh-122">
          <mxGeometry relative="1" as="geometry">
            <mxPoint x="248" y="1470" as="targetPoint" />
            <mxPoint x="108" y="1470" as="sourcePoint" />
          </mxGeometry>
        </mxCell>
        <mxCell id="dFDlhB7U1VUfF-L3KWkh-122" value="Load Data" style="rounded=1;whiteSpace=wrap;html=1;arcSize=40;fontColor=#000000;fillColor=#ffffc0;strokeColor=#ff0000;" vertex="1" parent="1">
          <mxGeometry x="158" y="1450" width="120" height="40" as="geometry" />
        </mxCell>
        <mxCell id="dFDlhB7U1VUfF-L3KWkh-123" value="" style="edgeStyle=orthogonalEdgeStyle;html=1;align=left;verticalAlign=top;endArrow=open;endSize=8;strokeColor=#ff0000;rounded=0;exitX=1;exitY=0.5;exitDx=0;exitDy=0;entryX=0;entryY=0.626;entryDx=0;entryDy=0;entryPerimeter=0;" edge="1" parent="1" target="dFDlhB7U1VUfF-L3KWkh-119" source="dFDlhB7U1VUfF-L3KWkh-124">
          <mxGeometry x="-1" relative="1" as="geometry">
            <mxPoint x="328" y="1600" as="targetPoint" />
            <mxPoint as="offset" />
            <mxPoint x="438" y="1470" as="sourcePoint" />
          </mxGeometry>
        </mxCell>
        <mxCell id="dFDlhB7U1VUfF-L3KWkh-134" value="&lt;div&gt;&lt;font style=&quot;font-size: 9px;&quot;&gt;Select Specific&lt;/font&gt;&lt;/div&gt;&lt;div&gt;&lt;font style=&quot;font-size: 9px;&quot;&gt;Food Item&lt;/font&gt;&lt;/div&gt;" style="edgeLabel;html=1;align=center;verticalAlign=middle;resizable=0;points=[];" vertex="1" connectable="0" parent="dFDlhB7U1VUfF-L3KWkh-123">
          <mxGeometry x="-0.3569" y="-1" relative="1" as="geometry">
            <mxPoint x="14" y="-1" as="offset" />
          </mxGeometry>
        </mxCell>
        <mxCell id="dFDlhB7U1VUfF-L3KWkh-124" value="Display Food Item List" style="rounded=1;whiteSpace=wrap;html=1;arcSize=40;fontColor=#000000;fillColor=#ffffc0;strokeColor=#ff0000;" vertex="1" parent="1">
          <mxGeometry x="369" y="1415" width="120" height="40" as="geometry" />
        </mxCell>
        <mxCell id="dFDlhB7U1VUfF-L3KWkh-126" value="Display Chore Item List" style="rounded=1;whiteSpace=wrap;html=1;arcSize=40;fontColor=#000000;fillColor=#ffffc0;strokeColor=#ff0000;" vertex="1" parent="1">
          <mxGeometry x="369" y="1490" width="120" height="40" as="geometry" />
        </mxCell>
        <mxCell id="dFDlhB7U1VUfF-L3KWkh-127" value="&lt;span style=&quot;color: rgba(0, 0, 0, 0); font-family: monospace; font-size: 0px; background-color: rgb(236, 236, 236);&quot;&gt;%3CmxGraphModel%3E%3Croot%3E%3CmxCell%20id%3D%220%22%2F%3E%3CmxCell%20id%3D%221%22%20parent%3D%220%22%2F%3E%3CmxCell%20id%3D%222%22%20value%3D%22yes%22%20style%3D%22edgeStyle%3DorthogonalEdgeStyle%3Bhtml%3D1%3Balign%3Dleft%3BverticalAlign%3Dtop%3BendArrow%3Dopen%3BendSize%3D8%3BstrokeColor%3D%23ff0000%3Brounded%3D0%3BexitX%3D1%3BexitY%3D0.5%3BexitDx%3D0%3BexitDy%3D0%3BentryX%3D0%3BentryY%3D0.626%3BentryDx%3D0%3BentryDy%3D0%3BentryPerimeter%3D0%3B%22%20edge%3D%221%22%20parent%3D%221%22%3E%3CmxGeometry%20x%3D%22-1%22%20relative%3D%221%22%20as%3D%22geometry%22%3E%3CmxPoint%20x%3D%22500%22%20y%3D%221555%22%20as%3D%22targetPoint%22%2F%3E%3CmxPoint%20as%3D%22offset%22%2F%3E%3CmxPoint%20x%3D%22439%22%20y%3D%221555%22%20as%3D%22sourcePoint%22%2F%3E%3C%2FmxGeometry%3E%3C%2FmxCell%3E%3C%2Froot%3E%3C%2FmxGraphModel%3E&lt;/span&gt;" style="edgeStyle=orthogonalEdgeStyle;html=1;align=left;verticalAlign=top;endArrow=open;endSize=8;strokeColor=#ff0000;rounded=0;exitX=1;exitY=0.5;exitDx=0;exitDy=0;entryX=0;entryY=0.5;entryDx=0;entryDy=0;" edge="1" parent="1" source="dFDlhB7U1VUfF-L3KWkh-122" target="dFDlhB7U1VUfF-L3KWkh-126">
          <mxGeometry x="-1" relative="1" as="geometry">
            <mxPoint x="359" y="1505" as="targetPoint" />
            <mxPoint as="offset" />
            <mxPoint x="229" y="1525" as="sourcePoint" />
            <Array as="points">
              <mxPoint x="289" y="1470" />
              <mxPoint x="289" y="1510" />
            </Array>
          </mxGeometry>
        </mxCell>
        <mxCell id="dFDlhB7U1VUfF-L3KWkh-130" value="&lt;div&gt;&lt;font style=&quot;font-size: 9px;&quot;&gt;Select View&amp;nbsp;&lt;/font&gt;&lt;/div&gt;&lt;div&gt;&lt;font style=&quot;font-size: 9px;&quot;&gt;Chore Items&lt;/font&gt;&lt;/div&gt;" style="edgeLabel;html=1;align=center;verticalAlign=middle;resizable=0;points=[];" vertex="1" connectable="0" parent="dFDlhB7U1VUfF-L3KWkh-127">
          <mxGeometry x="0.3799" relative="1" as="geometry">
            <mxPoint x="-6" y="-5" as="offset" />
          </mxGeometry>
        </mxCell>
        <mxCell id="dFDlhB7U1VUfF-L3KWkh-128" value="&lt;span style=&quot;color: rgba(0, 0, 0, 0); font-family: monospace; font-size: 0px; background-color: rgb(236, 236, 236);&quot;&gt;%3CmxGraphModel%3E%3Croot%3E%3CmxCell%20id%3D%220%22%2F%3E%3CmxCell%20id%3D%221%22%20parent%3D%220%22%2F%3E%3CmxCell%20id%3D%222%22%20value%3D%22yes%22%20style%3D%22edgeStyle%3DorthogonalEdgeStyle%3Bhtml%3D1%3Balign%3Dleft%3BverticalAlign%3Dtop%3BendArrow%3Dopen%3BendSize%3D8%3BstrokeColor%3D%23ff0000%3Brounded%3D0%3BexitX%3D1%3BexitY%3D0.5%3BexitDx%3D0%3BexitDy%3D0%3BentryX%3D0%3BentryY%3D0.626%3BentryDx%3D0%3BentryDy%3D0%3BentryPerimeter%3D0%3B%22%20edge%3D%221%22%20parent%3D%221%22%3E%3CmxGeometry%20x%3D%22-1%22%20relative%3D%221%22%20as%3D%22geometry%22%3E%3CmxPoint%20x%3D%22500%22%20y%3D%221555%22%20as%3D%22targetPoint%22%2F%3E%3CmxPoint%20as%3D%22offset%22%2F%3E%3CmxPoint%20x%3D%22439%22%20y%3D%221555%22%20as%3D%22sourcePoint%22%2F%3E%3C%2FmxGeometry%3E%3C%2FmxCell%3E%3C%2Froot%3E%3C%2FmxGraphModel%3E&lt;/span&gt;" style="edgeStyle=orthogonalEdgeStyle;html=1;align=left;verticalAlign=top;endArrow=open;endSize=8;strokeColor=#ff0000;rounded=0;exitX=1;exitY=0.5;exitDx=0;exitDy=0;entryX=0;entryY=0.5;entryDx=0;entryDy=0;" edge="1" parent="1" source="dFDlhB7U1VUfF-L3KWkh-122" target="dFDlhB7U1VUfF-L3KWkh-124">
          <mxGeometry x="-1" relative="1" as="geometry">
            <mxPoint x="338" y="1520" as="targetPoint" />
            <mxPoint as="offset" />
            <mxPoint x="288" y="1480" as="sourcePoint" />
            <Array as="points">
              <mxPoint x="289" y="1470" />
              <mxPoint x="289" y="1435" />
            </Array>
          </mxGeometry>
        </mxCell>
        <mxCell id="dFDlhB7U1VUfF-L3KWkh-133" value="&lt;div&gt;&lt;font style=&quot;font-size: 9px;&quot;&gt;Select View&amp;nbsp;&lt;/font&gt;&lt;/div&gt;&lt;div&gt;&lt;font style=&quot;font-size: 9px;&quot;&gt;Food Items&lt;/font&gt;&lt;/div&gt;" style="edgeLabel;html=1;align=center;verticalAlign=middle;resizable=0;points=[];" vertex="1" connectable="0" parent="dFDlhB7U1VUfF-L3KWkh-128">
          <mxGeometry x="0.2667" y="-2" relative="1" as="geometry">
            <mxPoint as="offset" />
          </mxGeometry>
        </mxCell>
        <mxCell id="dFDlhB7U1VUfF-L3KWkh-135" value="" style="ellipse;html=1;shape=endState;fillColor=#000000;strokeColor=#ff0000;" vertex="1" parent="1">
          <mxGeometry x="739" y="1415" width="30" height="30" as="geometry" />
        </mxCell>
        <mxCell id="dFDlhB7U1VUfF-L3KWkh-136" value="Display Chore Item" style="rounded=1;whiteSpace=wrap;html=1;arcSize=40;fontColor=#000000;fillColor=#ffffc0;strokeColor=#ff0000;" vertex="1" parent="1">
          <mxGeometry x="584" y="1485" width="120" height="40" as="geometry" />
        </mxCell>
        <mxCell id="dFDlhB7U1VUfF-L3KWkh-137" value="" style="edgeStyle=orthogonalEdgeStyle;html=1;verticalAlign=bottom;endArrow=open;endSize=8;strokeColor=#ff0000;rounded=0;entryX=0;entryY=0.5;entryDx=0;entryDy=0;exitX=1;exitY=0.5;exitDx=0;exitDy=0;" edge="1" parent="1" target="dFDlhB7U1VUfF-L3KWkh-140" source="dFDlhB7U1VUfF-L3KWkh-136">
          <mxGeometry relative="1" as="geometry">
            <mxPoint x="759" y="1525" as="targetPoint" />
            <mxPoint x="704" y="1510" as="sourcePoint" />
            <Array as="points" />
          </mxGeometry>
        </mxCell>
        <mxCell id="dFDlhB7U1VUfF-L3KWkh-138" value="" style="edgeStyle=orthogonalEdgeStyle;html=1;align=left;verticalAlign=top;endArrow=open;endSize=8;strokeColor=#ff0000;rounded=0;exitX=1;exitY=0.5;exitDx=0;exitDy=0;entryX=0;entryY=0.626;entryDx=0;entryDy=0;entryPerimeter=0;" edge="1" parent="1" target="dFDlhB7U1VUfF-L3KWkh-136">
          <mxGeometry x="-1" relative="1" as="geometry">
            <mxPoint x="328" y="1675" as="targetPoint" />
            <mxPoint as="offset" />
            <mxPoint x="489" y="1510" as="sourcePoint" />
          </mxGeometry>
        </mxCell>
        <mxCell id="dFDlhB7U1VUfF-L3KWkh-139" value="&lt;div&gt;&lt;font style=&quot;font-size: 9px;&quot;&gt;Select Specific&lt;/font&gt;&lt;/div&gt;&lt;div&gt;&lt;font style=&quot;font-size: 9px;&quot;&gt;Chore Item&lt;/font&gt;&lt;/div&gt;" style="edgeLabel;html=1;align=center;verticalAlign=middle;resizable=0;points=[];" vertex="1" connectable="0" parent="dFDlhB7U1VUfF-L3KWkh-138">
          <mxGeometry x="-0.3569" y="-1" relative="1" as="geometry">
            <mxPoint x="14" y="-1" as="offset" />
          </mxGeometry>
        </mxCell>
        <mxCell id="dFDlhB7U1VUfF-L3KWkh-140" value="" style="ellipse;html=1;shape=endState;fillColor=#000000;strokeColor=#ff0000;" vertex="1" parent="1">
          <mxGeometry x="739" y="1490" width="30" height="30" as="geometry" />
        </mxCell>
        <mxCell id="dFDlhB7U1VUfF-L3KWkh-141" value="Edit Item" style="text;html=1;align=left;verticalAlign=middle;whiteSpace=wrap;rounded=0;fontStyle=1;fontSize=15;" vertex="1" parent="1">
          <mxGeometry x="78" y="1540" width="90" height="30" as="geometry" />
        </mxCell>
        <mxCell id="dFDlhB7U1VUfF-L3KWkh-142" value="" style="ellipse;html=1;shape=startState;fillColor=#000000;strokeColor=#ff0000;" vertex="1" parent="1">
          <mxGeometry x="83" y="1610.5" width="30" height="30" as="geometry" />
        </mxCell>
        <mxCell id="dFDlhB7U1VUfF-L3KWkh-143" value="Display Food Item" style="rounded=1;whiteSpace=wrap;html=1;arcSize=40;fontColor=#000000;fillColor=#ffffc0;strokeColor=#ff0000;" vertex="1" parent="1">
          <mxGeometry x="163" y="1570.5" width="120" height="40" as="geometry" />
        </mxCell>
        <mxCell id="dFDlhB7U1VUfF-L3KWkh-144" value="Display Chore Item" style="rounded=1;whiteSpace=wrap;html=1;arcSize=40;fontColor=#000000;fillColor=#ffffc0;strokeColor=#ff0000;" vertex="1" parent="1">
          <mxGeometry x="162" y="1630.5" width="120" height="40" as="geometry" />
        </mxCell>
        <mxCell id="dFDlhB7U1VUfF-L3KWkh-146" value="" style="edgeStyle=orthogonalEdgeStyle;html=1;verticalAlign=bottom;endArrow=open;endSize=8;strokeColor=#ff0000;rounded=0;entryX=-0.027;entryY=0.59;entryDx=0;entryDy=0;entryPerimeter=0;exitX=1;exitY=0.5;exitDx=0;exitDy=0;" edge="1" parent="1" source="dFDlhB7U1VUfF-L3KWkh-142" target="dFDlhB7U1VUfF-L3KWkh-143">
          <mxGeometry relative="1" as="geometry">
            <mxPoint x="163" y="1610.21" as="targetPoint" />
            <mxPoint x="113" y="1610.21" as="sourcePoint" />
          </mxGeometry>
        </mxCell>
        <mxCell id="dFDlhB7U1VUfF-L3KWkh-147" value="" style="edgeStyle=orthogonalEdgeStyle;html=1;verticalAlign=bottom;endArrow=open;endSize=8;strokeColor=#ff0000;rounded=0;exitX=1;exitY=0.5;exitDx=0;exitDy=0;entryX=-0.017;entryY=0.618;entryDx=0;entryDy=0;entryPerimeter=0;" edge="1" parent="1" source="dFDlhB7U1VUfF-L3KWkh-142" target="dFDlhB7U1VUfF-L3KWkh-144">
          <mxGeometry relative="1" as="geometry">
            <mxPoint x="133" y="1660.5" as="targetPoint" />
            <mxPoint x="116.51" y="1640.5" as="sourcePoint" />
          </mxGeometry>
        </mxCell>
        <mxCell id="dFDlhB7U1VUfF-L3KWkh-148" value="Update Item In Database" style="rounded=1;whiteSpace=wrap;html=1;arcSize=40;fontColor=#000000;fillColor=#ffffc0;strokeColor=#ff0000;" vertex="1" parent="1">
          <mxGeometry x="584" y="1570" width="120" height="40" as="geometry" />
        </mxCell>
        <mxCell id="dFDlhB7U1VUfF-L3KWkh-149" value="" style="edgeStyle=orthogonalEdgeStyle;html=1;verticalAlign=bottom;endArrow=open;endSize=8;strokeColor=#ff0000;rounded=0;entryX=0;entryY=0.5;entryDx=0;entryDy=0;exitX=1;exitY=0.5;exitDx=0;exitDy=0;" edge="1" parent="1" target="dFDlhB7U1VUfF-L3KWkh-152" source="dFDlhB7U1VUfF-L3KWkh-148">
          <mxGeometry relative="1" as="geometry">
            <mxPoint x="759" y="1610" as="targetPoint" />
            <mxPoint x="704" y="1595" as="sourcePoint" />
            <Array as="points" />
          </mxGeometry>
        </mxCell>
        <mxCell id="dFDlhB7U1VUfF-L3KWkh-150" value="" style="edgeStyle=orthogonalEdgeStyle;html=1;align=left;verticalAlign=top;endArrow=open;endSize=8;strokeColor=#ff0000;rounded=0;exitX=1;exitY=0.5;exitDx=0;exitDy=0;entryX=0;entryY=0.5;entryDx=0;entryDy=0;" edge="1" parent="1" target="dFDlhB7U1VUfF-L3KWkh-160" source="dFDlhB7U1VUfF-L3KWkh-143">
          <mxGeometry x="-1" relative="1" as="geometry">
            <mxPoint x="370" y="1592" as="targetPoint" />
            <mxPoint as="offset" />
            <mxPoint x="283" y="1593" as="sourcePoint" />
          </mxGeometry>
        </mxCell>
        <mxCell id="dFDlhB7U1VUfF-L3KWkh-151" value="&lt;div&gt;&lt;font size=&quot;1&quot;&gt;Edit Details&lt;/font&gt;&lt;/div&gt;" style="edgeLabel;html=1;align=center;verticalAlign=middle;resizable=0;points=[];" vertex="1" connectable="0" parent="dFDlhB7U1VUfF-L3KWkh-150">
          <mxGeometry x="-0.3569" y="-1" relative="1" as="geometry">
            <mxPoint x="14" y="-1" as="offset" />
          </mxGeometry>
        </mxCell>
        <mxCell id="dFDlhB7U1VUfF-L3KWkh-152" value="" style="ellipse;html=1;shape=endState;fillColor=#000000;strokeColor=#ff0000;" vertex="1" parent="1">
          <mxGeometry x="739" y="1575" width="30" height="30" as="geometry" />
        </mxCell>
        <mxCell id="dFDlhB7U1VUfF-L3KWkh-153" value="Update Item In Database" style="rounded=1;whiteSpace=wrap;html=1;arcSize=40;fontColor=#000000;fillColor=#ffffc0;strokeColor=#ff0000;" vertex="1" parent="1">
          <mxGeometry x="584" y="1635" width="120" height="40" as="geometry" />
        </mxCell>
        <mxCell id="dFDlhB7U1VUfF-L3KWkh-154" value="" style="edgeStyle=orthogonalEdgeStyle;html=1;verticalAlign=bottom;endArrow=open;endSize=8;strokeColor=#ff0000;rounded=0;entryX=0;entryY=0.5;entryDx=0;entryDy=0;exitX=1;exitY=0.5;exitDx=0;exitDy=0;" edge="1" parent="1" target="dFDlhB7U1VUfF-L3KWkh-157" source="dFDlhB7U1VUfF-L3KWkh-153">
          <mxGeometry relative="1" as="geometry">
            <mxPoint x="758" y="1672.5" as="targetPoint" />
            <mxPoint x="703" y="1657.5" as="sourcePoint" />
            <Array as="points" />
          </mxGeometry>
        </mxCell>
        <mxCell id="dFDlhB7U1VUfF-L3KWkh-155" value="" style="edgeStyle=orthogonalEdgeStyle;html=1;align=left;verticalAlign=top;endArrow=open;endSize=8;strokeColor=#ff0000;rounded=0;exitX=1;exitY=0.5;exitDx=0;exitDy=0;entryX=0;entryY=0.5;entryDx=0;entryDy=0;" edge="1" parent="1">
          <mxGeometry x="-1" relative="1" as="geometry">
            <mxPoint x="369" y="1654.5" as="targetPoint" />
            <mxPoint as="offset" />
            <mxPoint x="282" y="1655.5" as="sourcePoint" />
          </mxGeometry>
        </mxCell>
        <mxCell id="dFDlhB7U1VUfF-L3KWkh-156" value="&lt;div&gt;&lt;font size=&quot;1&quot;&gt;Edit Details&lt;/font&gt;&lt;/div&gt;" style="edgeLabel;html=1;align=center;verticalAlign=middle;resizable=0;points=[];" vertex="1" connectable="0" parent="dFDlhB7U1VUfF-L3KWkh-155">
          <mxGeometry x="-0.3569" y="-1" relative="1" as="geometry">
            <mxPoint x="14" y="-1" as="offset" />
          </mxGeometry>
        </mxCell>
        <mxCell id="dFDlhB7U1VUfF-L3KWkh-157" value="" style="ellipse;html=1;shape=endState;fillColor=#000000;strokeColor=#ff0000;" vertex="1" parent="1">
          <mxGeometry x="739" y="1640.5" width="30" height="30" as="geometry" />
        </mxCell>
        <mxCell id="dFDlhB7U1VUfF-L3KWkh-160" value="Verify Meets Field Criteria" style="rhombus;whiteSpace=wrap;html=1;fontColor=#000000;fillColor=#ffffc0;strokeColor=#ff0000;" vertex="1" parent="1">
          <mxGeometry x="370" y="1560.5" width="130" height="60" as="geometry" />
        </mxCell>
        <mxCell id="dFDlhB7U1VUfF-L3KWkh-163" value="" style="edgeStyle=orthogonalEdgeStyle;html=1;align=left;verticalAlign=top;endArrow=open;endSize=8;strokeColor=#ff0000;rounded=0;exitX=1;exitY=0.5;exitDx=0;exitDy=0;entryX=0;entryY=0.5;entryDx=0;entryDy=0;" edge="1" parent="1" source="dFDlhB7U1VUfF-L3KWkh-160" target="dFDlhB7U1VUfF-L3KWkh-148">
          <mxGeometry x="-1" relative="1" as="geometry">
            <mxPoint x="597" y="1569.43" as="targetPoint" />
            <mxPoint as="offset" />
            <mxPoint x="502" y="1569.43" as="sourcePoint" />
          </mxGeometry>
        </mxCell>
        <mxCell id="dFDlhB7U1VUfF-L3KWkh-164" value="&lt;font size=&quot;1&quot;&gt;Yes&lt;/font&gt;" style="edgeLabel;html=1;align=center;verticalAlign=middle;resizable=0;points=[];" vertex="1" connectable="0" parent="dFDlhB7U1VUfF-L3KWkh-163">
          <mxGeometry x="-0.3569" y="-1" relative="1" as="geometry">
            <mxPoint x="2" y="-1" as="offset" />
          </mxGeometry>
        </mxCell>
        <mxCell id="dFDlhB7U1VUfF-L3KWkh-165" value="no" style="edgeStyle=orthogonalEdgeStyle;html=1;align=left;verticalAlign=bottom;endArrow=open;endSize=8;strokeColor=#ff0000;rounded=0;entryX=0.5;entryY=0;entryDx=0;entryDy=0;" edge="1" parent="1">
          <mxGeometry x="-0.5794" y="20" relative="1" as="geometry">
            <mxPoint x="215" y="1570" as="targetPoint" />
            <Array as="points">
              <mxPoint x="399" y="1576" />
              <mxPoint x="399" y="1550" />
              <mxPoint x="215" y="1550" />
            </Array>
            <mxPoint x="399" y="1575" as="sourcePoint" />
            <mxPoint as="offset" />
          </mxGeometry>
        </mxCell>
        <mxCell id="dFDlhB7U1VUfF-L3KWkh-166" value="Verify Meets Field Criteria" style="rhombus;whiteSpace=wrap;html=1;fontColor=#000000;fillColor=#ffffc0;strokeColor=#ff0000;" vertex="1" parent="1">
          <mxGeometry x="370" y="1625" width="130" height="60" as="geometry" />
        </mxCell>
        <mxCell id="dFDlhB7U1VUfF-L3KWkh-167" value="" style="edgeStyle=orthogonalEdgeStyle;html=1;align=left;verticalAlign=top;endArrow=open;endSize=8;strokeColor=#ff0000;rounded=0;exitX=1;exitY=0.5;exitDx=0;exitDy=0;entryX=0;entryY=0.5;entryDx=0;entryDy=0;" edge="1" parent="1" source="dFDlhB7U1VUfF-L3KWkh-166" target="dFDlhB7U1VUfF-L3KWkh-153">
          <mxGeometry x="-1" relative="1" as="geometry">
            <mxPoint x="584" y="1650" as="targetPoint" />
            <mxPoint as="offset" />
            <mxPoint x="502" y="1629.43" as="sourcePoint" />
          </mxGeometry>
        </mxCell>
        <mxCell id="dFDlhB7U1VUfF-L3KWkh-168" value="&lt;font size=&quot;1&quot;&gt;Yes&lt;/font&gt;" style="edgeLabel;html=1;align=center;verticalAlign=middle;resizable=0;points=[];" vertex="1" connectable="0" parent="dFDlhB7U1VUfF-L3KWkh-167">
          <mxGeometry x="-0.3569" y="-1" relative="1" as="geometry">
            <mxPoint x="2" y="-1" as="offset" />
          </mxGeometry>
        </mxCell>
        <mxCell id="dFDlhB7U1VUfF-L3KWkh-169" value="no" style="edgeStyle=orthogonalEdgeStyle;html=1;align=left;verticalAlign=bottom;endArrow=open;endSize=8;strokeColor=#ff0000;rounded=0;entryX=0.444;entryY=-0.025;entryDx=0;entryDy=0;exitX=0.225;exitY=0.254;exitDx=0;exitDy=0;exitPerimeter=0;entryPerimeter=0;" edge="1" parent="1" source="dFDlhB7U1VUfF-L3KWkh-166" target="dFDlhB7U1VUfF-L3KWkh-144">
          <mxGeometry x="-0.5794" y="20" relative="1" as="geometry">
            <mxPoint x="215" y="1632.5" as="targetPoint" />
            <Array as="points">
              <mxPoint x="399" y="1615" />
              <mxPoint x="215" y="1615" />
            </Array>
            <mxPoint x="399" y="1637.5" as="sourcePoint" />
            <mxPoint as="offset" />
          </mxGeometry>
        </mxCell>
        <mxCell id="dFDlhB7U1VUfF-L3KWkh-174" value="" style="edgeStyle=orthogonalEdgeStyle;html=1;verticalAlign=bottom;endArrow=open;endSize=8;strokeColor=#ff0000;rounded=0;" edge="1" parent="1" source="dFDlhB7U1VUfF-L3KWkh-22" target="dFDlhB7U1VUfF-L3KWkh-15">
          <mxGeometry relative="1" as="geometry">
            <mxPoint x="744" y="960" as="targetPoint" />
            <mxPoint x="660" y="960" as="sourcePoint" />
          </mxGeometry>
        </mxCell>
        <mxCell id="dFDlhB7U1VUfF-L3KWkh-175" value="Text" style="edgeLabel;html=1;align=center;verticalAlign=middle;resizable=0;points=[];" vertex="1" connectable="0" parent="dFDlhB7U1VUfF-L3KWkh-174">
          <mxGeometry x="-0.114" y="-1" relative="1" as="geometry">
            <mxPoint as="offset" />
          </mxGeometry>
        </mxCell>
        <mxCell id="dFDlhB7U1VUfF-L3KWkh-15" value="" style="ellipse;html=1;shape=endState;fillColor=#000000;strokeColor=#ff0000;" vertex="1" parent="1">
          <mxGeometry x="730" y="945" width="30" height="30" as="geometry" />
        </mxCell>
      </root>
    </mxGraphModel>
  </diagram>
</mxfile>
